<mxfile host="app.diagrams.net" modified="2024-03-26T16:08:09.028Z" agent="Mozilla/5.0 (Windows NT 10.0; Win64; x64) AppleWebKit/537.36 (KHTML, like Gecko) Chrome/123.0.0.0 Safari/537.36" etag="5vwqYD15BsxlJq-BG9Dz" version="24.1.0" type="github">
  <diagram name="Page-1" id="6133507b-19e7-1e82-6fc7-422aa6c4b21f">
    <mxGraphModel dx="2150" dy="522" grid="1" gridSize="10" guides="1" tooltips="1" connect="1" arrows="1" fold="1" page="1" pageScale="1" pageWidth="1100" pageHeight="850" background="none" math="0" shadow="0">
      <root>
        <mxCell id="0" />
        <mxCell id="1" parent="0" />
        <mxCell id="ybVXc9mHgJ1Ix1fh8yHk-1" value="1" style="swimlane;whiteSpace=wrap;html=1;" vertex="1" parent="1">
          <mxGeometry x="-930" y="130" width="100" height="130" as="geometry" />
        </mxCell>
        <mxCell id="ybVXc9mHgJ1Ix1fh8yHk-2" value="&lt;font style=&quot;font-size: 19px;&quot;&gt;client&lt;/font&gt;" style="text;html=1;align=center;verticalAlign=middle;resizable=0;points=[];autosize=1;strokeColor=none;fillColor=none;" vertex="1" parent="1">
          <mxGeometry x="-915" y="173" width="70" height="40" as="geometry" />
        </mxCell>
        <mxCell id="ybVXc9mHgJ1Ix1fh8yHk-3" value="" style="endArrow=classic;html=1;rounded=0;" edge="1" parent="1">
          <mxGeometry width="50" height="50" relative="1" as="geometry">
            <mxPoint x="-1060" y="180" as="sourcePoint" />
            <mxPoint x="-930" y="180" as="targetPoint" />
          </mxGeometry>
        </mxCell>
        <mxCell id="ybVXc9mHgJ1Ix1fh8yHk-4" value="" style="endArrow=classic;html=1;rounded=0;entryX=0;entryY=0.25;entryDx=0;entryDy=0;" edge="1" parent="1">
          <mxGeometry width="50" height="50" relative="1" as="geometry">
            <mxPoint x="-1060" y="215" as="sourcePoint" />
            <mxPoint x="-930" y="213" as="targetPoint" />
          </mxGeometry>
        </mxCell>
        <mxCell id="ybVXc9mHgJ1Ix1fh8yHk-9" value="" style="endArrow=classic;html=1;rounded=0;" edge="1" parent="1">
          <mxGeometry width="50" height="50" relative="1" as="geometry">
            <mxPoint x="-830" y="180" as="sourcePoint" />
            <mxPoint x="-700" y="180" as="targetPoint" />
          </mxGeometry>
        </mxCell>
        <mxCell id="ybVXc9mHgJ1Ix1fh8yHk-10" value="" style="endArrow=classic;html=1;rounded=0;exitX=0.067;exitY=1.075;exitDx=0;exitDy=0;exitPerimeter=0;" edge="1" parent="1" source="ybVXc9mHgJ1Ix1fh8yHk-8">
          <mxGeometry width="50" height="50" relative="1" as="geometry">
            <mxPoint x="-830" y="215" as="sourcePoint" />
            <mxPoint x="-830" y="220" as="targetPoint" />
          </mxGeometry>
        </mxCell>
        <mxCell id="ybVXc9mHgJ1Ix1fh8yHk-11" value="2" style="swimlane;whiteSpace=wrap;html=1;" vertex="1" parent="1">
          <mxGeometry x="-700" y="130" width="115" height="130" as="geometry" />
        </mxCell>
        <mxCell id="ybVXc9mHgJ1Ix1fh8yHk-8" value="&lt;font style=&quot;font-size: 18px;&quot;&gt;Check Client&lt;/font&gt;" style="text;html=1;align=center;verticalAlign=middle;resizable=0;points=[];autosize=1;strokeColor=none;fillColor=none;" vertex="1" parent="ybVXc9mHgJ1Ix1fh8yHk-11">
          <mxGeometry x="-7.5" y="45" width="130" height="40" as="geometry" />
        </mxCell>
        <mxCell id="ybVXc9mHgJ1Ix1fh8yHk-13" value="" style="endArrow=classic;html=1;rounded=0;entryX=0;entryY=0.5;entryDx=0;entryDy=0;" edge="1" parent="1" target="ybVXc9mHgJ1Ix1fh8yHk-19">
          <mxGeometry width="50" height="50" relative="1" as="geometry">
            <mxPoint x="-585" y="194" as="sourcePoint" />
            <mxPoint x="-455" y="192" as="targetPoint" />
          </mxGeometry>
        </mxCell>
        <mxCell id="ybVXc9mHgJ1Ix1fh8yHk-19" value="D1" style="swimlane;horizontal=0;whiteSpace=wrap;html=1;startSize=30;" vertex="1" parent="1">
          <mxGeometry x="-450" y="158" width="150" height="75" as="geometry" />
        </mxCell>
        <mxCell id="ybVXc9mHgJ1Ix1fh8yHk-20" value="&lt;font style=&quot;font-size: 19px;&quot;&gt;client master&lt;/font&gt;" style="text;html=1;align=center;verticalAlign=middle;resizable=0;points=[];autosize=1;strokeColor=none;fillColor=none;" vertex="1" parent="ybVXc9mHgJ1Ix1fh8yHk-19">
          <mxGeometry x="20" y="25" width="130" height="40" as="geometry" />
        </mxCell>
        <mxCell id="ybVXc9mHgJ1Ix1fh8yHk-21" value="&lt;font style=&quot;font-size: 15px;&quot;&gt;info&lt;/font&gt;" style="text;html=1;align=center;verticalAlign=middle;resizable=0;points=[];autosize=1;strokeColor=none;fillColor=none;" vertex="1" parent="1">
          <mxGeometry x="-1025" y="148" width="50" height="30" as="geometry" />
        </mxCell>
        <mxCell id="ybVXc9mHgJ1Ix1fh8yHk-22" value="&lt;font style=&quot;font-size: 15px;&quot;&gt;project&lt;/font&gt;" style="text;html=1;align=center;verticalAlign=middle;resizable=0;points=[];autosize=1;strokeColor=none;fillColor=none;" vertex="1" parent="1">
          <mxGeometry x="-1050" y="188" width="70" height="30" as="geometry" />
        </mxCell>
        <mxCell id="ybVXc9mHgJ1Ix1fh8yHk-23" value="&lt;font style=&quot;font-size: 15px;&quot;&gt;client&lt;/font&gt;" style="text;html=1;align=center;verticalAlign=middle;resizable=0;points=[];autosize=1;strokeColor=none;fillColor=none;" vertex="1" parent="1">
          <mxGeometry x="-820" y="148" width="60" height="30" as="geometry" />
        </mxCell>
        <mxCell id="ybVXc9mHgJ1Ix1fh8yHk-24" value="&lt;font style=&quot;font-size: 15px;&quot;&gt;response&lt;/font&gt;" style="text;html=1;align=center;verticalAlign=middle;resizable=0;points=[];autosize=1;strokeColor=none;fillColor=none;" vertex="1" parent="1">
          <mxGeometry x="-825" y="213" width="90" height="30" as="geometry" />
        </mxCell>
        <mxCell id="ybVXc9mHgJ1Ix1fh8yHk-25" value="&lt;font style=&quot;font-size: 15px;&quot;&gt;response&lt;/font&gt;" style="text;html=1;align=center;verticalAlign=middle;resizable=0;points=[];autosize=1;strokeColor=none;fillColor=none;" vertex="1" parent="1">
          <mxGeometry x="-560" y="218" width="90" height="30" as="geometry" />
        </mxCell>
        <mxCell id="ybVXc9mHgJ1Ix1fh8yHk-26" value="" style="endArrow=classic;html=1;rounded=0;exitX=0.067;exitY=1.075;exitDx=0;exitDy=0;exitPerimeter=0;" edge="1" parent="1">
          <mxGeometry width="50" height="50" relative="1" as="geometry">
            <mxPoint x="-450" y="218" as="sourcePoint" />
            <mxPoint x="-590" y="218" as="targetPoint" />
          </mxGeometry>
        </mxCell>
        <mxCell id="ybVXc9mHgJ1Ix1fh8yHk-27" value="&lt;font style=&quot;font-size: 15px;&quot;&gt;client&lt;/font&gt;" style="text;html=1;align=center;verticalAlign=middle;resizable=0;points=[];autosize=1;strokeColor=none;fillColor=none;" vertex="1" parent="1">
          <mxGeometry x="-580" y="168" width="60" height="30" as="geometry" />
        </mxCell>
        <mxCell id="ybVXc9mHgJ1Ix1fh8yHk-28" value="" style="endArrow=classic;html=1;rounded=0;exitX=0.5;exitY=1;exitDx=0;exitDy=0;" edge="1" parent="1" source="ybVXc9mHgJ1Ix1fh8yHk-1">
          <mxGeometry width="50" height="50" relative="1" as="geometry">
            <mxPoint x="-860" y="350" as="sourcePoint" />
            <mxPoint x="-810" y="360" as="targetPoint" />
            <Array as="points">
              <mxPoint x="-880" y="360" />
            </Array>
          </mxGeometry>
        </mxCell>
        <mxCell id="ybVXc9mHgJ1Ix1fh8yHk-29" value="3" style="swimlane;whiteSpace=wrap;html=1;" vertex="1" parent="1">
          <mxGeometry x="-810" y="295" width="100" height="130" as="geometry" />
        </mxCell>
        <mxCell id="ybVXc9mHgJ1Ix1fh8yHk-30" value="&lt;font style=&quot;font-size: 19px;&quot;&gt;project&amp;nbsp;&lt;/font&gt;&lt;div&gt;&lt;font style=&quot;font-size: 19px;&quot;&gt;modi&lt;/font&gt;&lt;span style=&quot;background-color: initial; font-size: 19px;&quot;&gt;fy&lt;/span&gt;&lt;/div&gt;" style="text;html=1;align=center;verticalAlign=middle;resizable=0;points=[];autosize=1;strokeColor=none;fillColor=none;" vertex="1" parent="ybVXc9mHgJ1Ix1fh8yHk-29">
          <mxGeometry x="5" y="35" width="90" height="60" as="geometry" />
        </mxCell>
        <mxCell id="ybVXc9mHgJ1Ix1fh8yHk-31" value="&lt;font style=&quot;font-size: 14px;&quot;&gt;quotation&lt;/font&gt;&lt;div style=&quot;font-size: 14px;&quot;&gt;&lt;font style=&quot;font-size: 14px;&quot;&gt;project&lt;/font&gt;&lt;/div&gt;" style="text;html=1;align=center;verticalAlign=middle;resizable=0;points=[];autosize=1;strokeColor=none;fillColor=none;" vertex="1" parent="1">
          <mxGeometry x="-890" y="308" width="80" height="50" as="geometry" />
        </mxCell>
        <mxCell id="ybVXc9mHgJ1Ix1fh8yHk-32" value="" style="endArrow=classic;html=1;rounded=0;" edge="1" parent="1">
          <mxGeometry width="50" height="50" relative="1" as="geometry">
            <mxPoint x="-710" y="359.5" as="sourcePoint" />
            <mxPoint x="-580" y="359.5" as="targetPoint" />
          </mxGeometry>
        </mxCell>
        <mxCell id="ybVXc9mHgJ1Ix1fh8yHk-34" value="4" style="swimlane;whiteSpace=wrap;html=1;" vertex="1" parent="1">
          <mxGeometry x="-580" y="290" width="100" height="130" as="geometry" />
        </mxCell>
        <mxCell id="ybVXc9mHgJ1Ix1fh8yHk-35" value="&lt;div&gt;&lt;font style=&quot;font-size: 19px;&quot;&gt;config&lt;/font&gt;&lt;/div&gt;&lt;div&gt;&lt;span style=&quot;font-size: 19px;&quot;&gt;invoice&lt;/span&gt;&lt;/div&gt;" style="text;html=1;align=center;verticalAlign=middle;resizable=0;points=[];autosize=1;strokeColor=none;fillColor=none;" vertex="1" parent="ybVXc9mHgJ1Ix1fh8yHk-34">
          <mxGeometry x="10" y="35" width="80" height="60" as="geometry" />
        </mxCell>
        <mxCell id="ybVXc9mHgJ1Ix1fh8yHk-36" value="" style="endArrow=classic;html=1;rounded=0;exitX=0.5;exitY=1;exitDx=0;exitDy=0;" edge="1" parent="1">
          <mxGeometry width="50" height="50" relative="1" as="geometry">
            <mxPoint x="-770" y="425" as="sourcePoint" />
            <mxPoint x="-845" y="525" as="targetPoint" />
            <Array as="points">
              <mxPoint x="-770" y="525" />
            </Array>
          </mxGeometry>
        </mxCell>
        <mxCell id="ybVXc9mHgJ1Ix1fh8yHk-37" value="5" style="swimlane;whiteSpace=wrap;html=1;" vertex="1" parent="1">
          <mxGeometry x="-945" y="470" width="100" height="130" as="geometry" />
        </mxCell>
        <mxCell id="ybVXc9mHgJ1Ix1fh8yHk-38" value="&lt;div&gt;&lt;span style=&quot;font-size: 19px;&quot;&gt;Material&lt;/span&gt;&lt;/div&gt;" style="text;html=1;align=center;verticalAlign=middle;resizable=0;points=[];autosize=1;strokeColor=none;fillColor=none;" vertex="1" parent="ybVXc9mHgJ1Ix1fh8yHk-37">
          <mxGeometry x="5" y="45" width="90" height="40" as="geometry" />
        </mxCell>
        <mxCell id="ybVXc9mHgJ1Ix1fh8yHk-39" value="" style="endArrow=classic;html=1;rounded=0;" edge="1" parent="1">
          <mxGeometry width="50" height="50" relative="1" as="geometry">
            <mxPoint x="-840" y="560" as="sourcePoint" />
            <mxPoint x="-740" y="600" as="targetPoint" />
            <Array as="points">
              <mxPoint x="-740" y="560" />
            </Array>
          </mxGeometry>
        </mxCell>
        <mxCell id="ybVXc9mHgJ1Ix1fh8yHk-40" value="6" style="swimlane;whiteSpace=wrap;html=1;" vertex="1" parent="1">
          <mxGeometry x="-760" y="600" width="100" height="130" as="geometry" />
        </mxCell>
        <mxCell id="ybVXc9mHgJ1Ix1fh8yHk-41" value="&lt;div&gt;&lt;span style=&quot;font-size: 19px;&quot;&gt;Task&lt;/span&gt;&lt;/div&gt;" style="text;html=1;align=center;verticalAlign=middle;resizable=0;points=[];autosize=1;strokeColor=none;fillColor=none;" vertex="1" parent="ybVXc9mHgJ1Ix1fh8yHk-40">
          <mxGeometry x="20" y="45" width="60" height="40" as="geometry" />
        </mxCell>
        <mxCell id="ybVXc9mHgJ1Ix1fh8yHk-42" value="" style="endArrow=classic;html=1;rounded=0;" edge="1" parent="1">
          <mxGeometry width="50" height="50" relative="1" as="geometry">
            <mxPoint x="-950" y="720" as="sourcePoint" />
            <mxPoint x="-880" y="600" as="targetPoint" />
            <Array as="points">
              <mxPoint x="-950" y="690" />
              <mxPoint x="-880" y="690" />
            </Array>
          </mxGeometry>
        </mxCell>
        <mxCell id="ybVXc9mHgJ1Ix1fh8yHk-43" value="D2" style="swimlane;horizontal=0;whiteSpace=wrap;html=1;startSize=30;" vertex="1" parent="1">
          <mxGeometry x="-995" y="720" width="155" height="75" as="geometry" />
        </mxCell>
        <mxCell id="ybVXc9mHgJ1Ix1fh8yHk-44" value="&lt;font style=&quot;font-size: 17px;&quot;&gt;Material master&lt;/font&gt;" style="text;html=1;align=center;verticalAlign=middle;resizable=0;points=[];autosize=1;strokeColor=none;fillColor=none;" vertex="1" parent="ybVXc9mHgJ1Ix1fh8yHk-43">
          <mxGeometry x="25" y="30" width="140" height="30" as="geometry" />
        </mxCell>
        <mxCell id="ybVXc9mHgJ1Ix1fh8yHk-47" value="7" style="swimlane;whiteSpace=wrap;html=1;startSize=23;" vertex="1" parent="1">
          <mxGeometry x="-800" y="820" width="100" height="130" as="geometry" />
        </mxCell>
        <mxCell id="ybVXc9mHgJ1Ix1fh8yHk-48" value="&lt;div&gt;&lt;span style=&quot;font-size: 19px;&quot;&gt;payment&lt;/span&gt;&lt;/div&gt;&lt;div&gt;&lt;span style=&quot;font-size: 19px;&quot;&gt;process&lt;/span&gt;&lt;/div&gt;" style="text;html=1;align=center;verticalAlign=middle;resizable=0;points=[];autosize=1;strokeColor=none;fillColor=none;" vertex="1" parent="ybVXc9mHgJ1Ix1fh8yHk-47">
          <mxGeometry y="35" width="100" height="60" as="geometry" />
        </mxCell>
        <mxCell id="ybVXc9mHgJ1Ix1fh8yHk-49" value="" style="endArrow=classic;html=1;rounded=0;entryX=0.676;entryY=-0.022;entryDx=0;entryDy=0;entryPerimeter=0;" edge="1" parent="1" target="ybVXc9mHgJ1Ix1fh8yHk-47">
          <mxGeometry width="50" height="50" relative="1" as="geometry">
            <mxPoint x="-730" y="730" as="sourcePoint" />
            <mxPoint x="-690" y="800" as="targetPoint" />
            <Array as="points" />
          </mxGeometry>
        </mxCell>
        <mxCell id="ybVXc9mHgJ1Ix1fh8yHk-50" value="&lt;font style=&quot;font-size: 15px;&quot;&gt;payment&lt;/font&gt;" style="text;html=1;align=center;verticalAlign=middle;resizable=0;points=[];autosize=1;strokeColor=none;fillColor=none;rotation=270;" vertex="1" parent="1">
          <mxGeometry x="-790" y="765" width="80" height="30" as="geometry" />
        </mxCell>
        <mxCell id="ybVXc9mHgJ1Ix1fh8yHk-51" value="" style="endArrow=classic;html=1;rounded=0;exitX=-0.036;exitY=0.353;exitDx=0;exitDy=0;exitPerimeter=0;" edge="1" parent="1" source="ybVXc9mHgJ1Ix1fh8yHk-53">
          <mxGeometry width="50" height="50" relative="1" as="geometry">
            <mxPoint x="-580" y="860" as="sourcePoint" />
            <mxPoint x="-700" y="860" as="targetPoint" />
            <Array as="points" />
          </mxGeometry>
        </mxCell>
        <mxCell id="ybVXc9mHgJ1Ix1fh8yHk-52" value="" style="endArrow=classic;html=1;rounded=0;" edge="1" parent="1">
          <mxGeometry width="50" height="50" relative="1" as="geometry">
            <mxPoint x="-700" y="900" as="sourcePoint" />
            <mxPoint x="-570" y="900" as="targetPoint" />
            <Array as="points" />
          </mxGeometry>
        </mxCell>
        <mxCell id="ybVXc9mHgJ1Ix1fh8yHk-53" value="&lt;font style=&quot;font-size: 19px;&quot;&gt;Bank&lt;/font&gt;" style="whiteSpace=wrap;html=1;aspect=fixed;" vertex="1" parent="1">
          <mxGeometry x="-570" y="820" width="110" height="110" as="geometry" />
        </mxCell>
        <mxCell id="ybVXc9mHgJ1Ix1fh8yHk-54" value="&lt;font style=&quot;font-size: 15px;&quot;&gt;payment&lt;/font&gt;" style="text;html=1;align=center;verticalAlign=middle;resizable=0;points=[];autosize=1;strokeColor=none;fillColor=none;rotation=0;" vertex="1" parent="1">
          <mxGeometry x="-680" y="870" width="80" height="30" as="geometry" />
        </mxCell>
        <mxCell id="ybVXc9mHgJ1Ix1fh8yHk-55" value="&lt;font style=&quot;font-size: 15px;&quot;&gt;feedback&lt;/font&gt;" style="text;html=1;align=center;verticalAlign=middle;resizable=0;points=[];autosize=1;strokeColor=none;fillColor=none;" vertex="1" parent="1">
          <mxGeometry x="-680" y="830" width="80" height="30" as="geometry" />
        </mxCell>
        <mxCell id="ybVXc9mHgJ1Ix1fh8yHk-56" value="&lt;font style=&quot;font-size: 15px;&quot;&gt;response&lt;/font&gt;" style="text;html=1;align=center;verticalAlign=middle;resizable=0;points=[];autosize=1;strokeColor=none;fillColor=none;rotation=270;" vertex="1" parent="1">
          <mxGeometry x="-900" y="650" width="90" height="30" as="geometry" />
        </mxCell>
        <mxCell id="ybVXc9mHgJ1Ix1fh8yHk-59" value="&lt;font style=&quot;font-size: 15px;&quot;&gt;billing statemant&lt;/font&gt;" style="text;html=1;align=center;verticalAlign=middle;resizable=0;points=[];autosize=1;strokeColor=none;fillColor=none;" vertex="1" parent="1">
          <mxGeometry x="-935" y="850" width="130" height="30" as="geometry" />
        </mxCell>
        <mxCell id="ybVXc9mHgJ1Ix1fh8yHk-60" value="" style="endArrow=classic;html=1;rounded=0;exitX=-0.036;exitY=0.353;exitDx=0;exitDy=0;exitPerimeter=0;" edge="1" parent="1">
          <mxGeometry width="50" height="50" relative="1" as="geometry">
            <mxPoint x="-800" y="884.5" as="sourcePoint" />
            <mxPoint x="-926" y="885.5" as="targetPoint" />
            <Array as="points" />
          </mxGeometry>
        </mxCell>
        <mxCell id="ybVXc9mHgJ1Ix1fh8yHk-61" value="&lt;font style=&quot;font-size: 19px;&quot;&gt;client&lt;/font&gt;" style="whiteSpace=wrap;html=1;aspect=fixed;" vertex="1" parent="1">
          <mxGeometry x="-1040" y="830" width="110" height="110" as="geometry" />
        </mxCell>
      </root>
    </mxGraphModel>
  </diagram>
</mxfile>
